<svg width="30" height="30" viewBox="0 0 30 30" fill="none" xmlns="http://www.w3.org/2000/svg">
<path fill-rule="evenodd" clip-rule="evenodd" d="M3 4C3 3.44772 3.44772 3 4 3H12.75C13.3023 3 13.75 3.44772 13.75 4V12.75C13.75 13.3023 13.3023 13.75 12.75 13.75H4C3.44772 13.75 3 13.3023 3 12.75V4ZM5 5V11.75H11.75V5H5Z" fill="black"/>
<path fill-rule="evenodd" clip-rule="evenodd" d="M16.75 4C16.75 3.44772 17.1977 3 17.75 3H26.5C27.0523 3 27.5 3.44772 27.5 4V12.75C27.5 13.3023 27.0523 13.75 26.5 13.75H17.75C17.1977 13.75 16.75 13.3023 16.75 12.75V4ZM18.75 5V11.75H25.5V5H18.75Z" fill="black"/>
<path fill-rule="evenodd" clip-rule="evenodd" d="M16.75 17.75C16.75 17.1977 17.1977 16.75 17.75 16.75H26.5C27.0523 16.75 27.5 17.1977 27.5 17.75V26.5C27.5 27.0523 27.0523 27.5 26.5 27.5H17.75C17.1977 27.5 16.75 27.0523 16.75 26.5V17.75ZM18.75 18.75V25.5H25.5V18.75H18.75Z" fill="black"/>
<path fill-rule="evenodd" clip-rule="evenodd" d="M3 17.75C3 17.1977 3.44772 16.75 4 16.75H12.75C13.3023 16.75 13.75 17.1977 13.75 17.75V26.5C13.75 27.0523 13.3023 27.5 12.75 27.5H4C3.44772 27.5 3 27.0523 3 26.5V17.75ZM5 18.75V25.5H11.75V18.75H5Z" fill="black"/>
</svg>
