<svg width="30" height="30" viewBox="0 0 30 30" fill="none" xmlns="http://www.w3.org/2000/svg">
<path fill-rule="evenodd" clip-rule="evenodd" d="M17.8914 3.11884C18.8774 2.71029 19.9343 2.5 21.0016 2.5C22.0689 2.5 23.1258 2.71029 24.1118 3.11884C25.0976 3.52733 25.9934 4.12601 26.7478 4.88069C27.5025 5.63513 28.1016 6.53126 28.51 7.5171C28.9186 8.50312 29.1289 9.55997 29.1289 10.6273C29.1289 11.6946 28.9186 12.7514 28.51 13.7375C28.1015 14.7234 27.5028 15.6192 26.748 16.3737C26.7479 16.3737 26.7481 16.3736 26.748 16.3737L15.698 27.4237C15.2098 27.9118 14.4184 27.9118 13.9302 27.4237L2.88023 16.3737C1.35619 14.8496 0.5 12.7826 0.5 10.6273C0.5 8.47197 1.35619 6.40493 2.88023 4.8809C4.40427 3.35686 6.4713 2.50067 8.62661 2.50067C10.7819 2.50067 12.849 3.35686 14.373 4.8809L14.8141 5.32202L15.255 4.88111C15.255 4.88118 15.2551 4.88104 15.255 4.88111C16.0095 4.12632 16.9055 3.52736 17.8914 3.11884ZM21.0016 5C20.2627 5 19.531 5.14558 18.8484 5.42843C18.1658 5.71128 17.5456 6.12585 17.0232 6.64846L15.698 7.97367C15.2098 8.46182 14.4184 8.46182 13.9302 7.97367L12.6052 6.64867C11.55 5.59347 10.1189 5.00067 8.62661 5.00067C7.13434 5.00067 5.70319 5.59347 4.648 6.64867C3.5928 7.70386 3 9.13501 3 10.6273C3 12.1196 3.5928 13.5507 4.648 14.6059L14.8141 24.772L24.9802 14.6059C25.5028 14.0835 25.9176 13.4631 26.2005 12.7805C26.4833 12.0979 26.6289 11.3662 26.6289 10.6273C26.6289 9.88838 26.4833 9.15671 26.2005 8.47408C25.9176 7.79145 25.503 7.17124 24.9804 6.64887C24.4581 6.12626 23.8374 5.71128 23.1548 5.42843C22.4722 5.14558 21.7405 5 21.0016 5Z" fill="black"/>
</svg>
