<svg width="30" height="30" viewBox="0 0 30 30" fill="none" xmlns="http://www.w3.org/2000/svg">
<path fill-rule="evenodd" clip-rule="evenodd" d="M16.2674 1.26331C15.816 0.91223 15.184 0.91223 14.7326 1.26331L3.48257 10.0133C3.17809 10.2501 3 10.6143 3 11V24.75C3 25.7446 3.39509 26.6984 4.09835 27.4016C4.80161 28.1049 5.75544 28.5 6.75 28.5H24.25C25.2446 28.5 26.1984 28.1049 26.9016 27.4016C27.6049 26.6984 28 25.7446 28 24.75V11C28 10.6143 27.8219 10.2501 27.5174 10.0133L16.2674 1.26331ZM20.5 26H24.25C24.5815 26 24.8995 25.8683 25.1339 25.6339C25.3683 25.3995 25.5 25.0815 25.5 24.75V11.6114L15.5 3.83358L5.5 11.6114V24.75C5.5 25.0815 5.6317 25.3995 5.86612 25.6339C6.10054 25.8683 6.41848 26 6.75 26H10.5V14.75C10.5 14.0596 11.0596 13.5 11.75 13.5H19.25C19.9404 13.5 20.5 14.0596 20.5 14.75V26ZM13 26V16H18V26H13Z" fill="black"/>
</svg>
