<svg width="16" height="16" viewBox="0 0 16 16" fill="none" xmlns="http://www.w3.org/2000/svg">
<path fill-rule="evenodd" clip-rule="evenodd" d="M9.27543 1.33005C9.80131 1.11215 10.365 1 10.9342 1C11.5034 1 12.0671 1.11215 12.593 1.33005C13.1187 1.54791 13.5965 1.8672 13.9988 2.2697C14.4013 2.67207 14.7208 3.15001 14.9387 3.67579C15.1566 4.20166 15.2687 4.76532 15.2687 5.33455C15.2687 5.90378 15.1566 6.46744 14.9387 6.99332C14.7208 7.51914 14.4015 7.9969 13.9989 8.39929L8.1056 14.2926C7.84525 14.553 7.42314 14.553 7.16279 14.2926L1.26946 8.39929C0.456637 7.58647 0 6.48405 0 5.33455C0 4.18505 0.456637 3.08263 1.26946 2.26981C2.08228 1.45699 3.18469 1.00036 4.33419 1.00036C5.48369 1.00036 6.58611 1.45699 7.39893 2.26981L7.63419 2.50508L7.86935 2.26992C8.27174 1.86737 8.7496 1.54793 9.27543 1.33005Z" fill="#1C62CD"/>
</svg>
