<svg width="16" height="16" viewBox="0 0 16 16" fill="none" xmlns="http://www.w3.org/2000/svg">
<path fill-rule="evenodd" clip-rule="evenodd" d="M9.54209 1.66338C10.068 1.44548 10.6316 1.33333 11.2009 1.33333C11.7701 1.33333 12.3337 1.44548 12.8596 1.66338C13.3854 1.88124 13.8631 2.20053 14.2655 2.60303C14.668 3.0054 14.9875 3.48333 15.2054 4.00911C15.4233 4.53499 15.5354 5.09865 15.5354 5.66788C15.5354 6.23711 15.4233 6.80077 15.2054 7.32664C14.9875 7.85247 14.6681 8.33023 14.2656 8.73262C14.2656 8.73265 14.2656 8.73258 14.2656 8.73262L8.37226 14.626C8.11191 14.8863 7.6898 14.8863 7.42945 14.626L1.53612 8.73262C0.7233 7.9198 0.266663 6.81738 0.266663 5.66788C0.266663 4.51838 0.7233 3.41596 1.53612 2.60314C2.34894 1.79032 3.45136 1.33368 4.60086 1.33368C5.75036 1.33368 6.85278 1.79032 7.66559 2.60314L7.90086 2.8384L8.13601 2.60325C8.13604 2.60321 8.13597 2.60329 8.13601 2.60325C8.5384 2.2007 9.01626 1.88126 9.54209 1.66338ZM11.2009 2.66666C10.8068 2.66666 10.4165 2.74431 10.0525 2.89516C9.68841 3.04601 9.35763 3.26711 9.07904 3.54584L8.37226 4.25262C8.11191 4.51297 7.6898 4.51297 7.42945 4.25262L6.72278 3.54595C6.16001 2.98318 5.39673 2.66702 4.60086 2.66702C3.80498 2.66702 3.0417 2.98318 2.47893 3.54595C1.91616 4.10872 1.6 4.872 1.6 5.66788C1.6 6.46376 1.91616 7.22704 2.47893 7.78981L7.90086 13.2117L13.3228 7.78981C13.6015 7.51121 13.8227 7.18032 13.9736 6.81625C14.1244 6.45218 14.2021 6.06196 14.2021 5.66788C14.2021 5.2738 14.1244 4.88357 13.9736 4.5195C13.8227 4.15543 13.6016 3.82465 13.3229 3.54606C13.0443 3.26734 12.7133 3.04601 12.3492 2.89516C11.9852 2.74431 11.5949 2.66666 11.2009 2.66666Z" fill="black"/>
</svg>
