<svg width="30" height="30" viewBox="0 0 30 30" fill="none" xmlns="http://www.w3.org/2000/svg">
<path fill-rule="evenodd" clip-rule="evenodd" d="M9.25 8C9.25 7.44772 9.69772 7 10.25 7H26.5C27.0523 7 27.5 7.44772 27.5 8C27.5 8.55228 27.0523 9 26.5 9H10.25C9.69772 9 9.25 8.55228 9.25 8Z" fill="black"/>
<path fill-rule="evenodd" clip-rule="evenodd" d="M9.25 15.5C9.25 14.9477 9.69772 14.5 10.25 14.5H26.5C27.0523 14.5 27.5 14.9477 27.5 15.5C27.5 16.0523 27.0523 16.5 26.5 16.5H10.25C9.69772 16.5 9.25 16.0523 9.25 15.5Z" fill="black"/>
<path fill-rule="evenodd" clip-rule="evenodd" d="M9.25 23C9.25 22.4477 9.69772 22 10.25 22H26.5C27.0523 22 27.5 22.4477 27.5 23C27.5 23.5523 27.0523 24 26.5 24H10.25C9.69772 24 9.25 23.5523 9.25 23Z" fill="black"/>
<path fill-rule="evenodd" clip-rule="evenodd" d="M3 8C3 7.44772 3.44772 7 4 7H4.0125C4.56478 7 5.0125 7.44772 5.0125 8C5.0125 8.55228 4.56478 9 4.0125 9H4C3.44772 9 3 8.55228 3 8Z" fill="black"/>
<path fill-rule="evenodd" clip-rule="evenodd" d="M3 15.5C3 14.9477 3.44772 14.5 4 14.5H4.0125C4.56478 14.5 5.0125 14.9477 5.0125 15.5C5.0125 16.0523 4.56478 16.5 4.0125 16.5H4C3.44772 16.5 3 16.0523 3 15.5Z" fill="black"/>
<path fill-rule="evenodd" clip-rule="evenodd" d="M3 23C3 22.4477 3.44772 22 4 22H4.0125C4.56478 22 5.0125 22.4477 5.0125 23C5.0125 23.5523 4.56478 24 4.0125 24H4C3.44772 24 3 23.5523 3 23Z" fill="black"/>
</svg>
