<svg width="30" height="30" viewBox="0 0 30 30" fill="none" xmlns="http://www.w3.org/2000/svg">
<path fill-rule="evenodd" clip-rule="evenodd" d="M18 4.25C18 3.55964 18.5596 3 19.25 3H24.25C25.2446 3 26.1984 3.39509 26.9016 4.09835C27.6049 4.80161 28 5.75544 28 6.75V24.25C28 25.2446 27.6049 26.1984 26.9016 26.9016C26.1984 27.6049 25.2446 28 24.25 28H19.25C18.5596 28 18 27.4404 18 26.75C18 26.0596 18.5596 25.5 19.25 25.5H24.25C24.5815 25.5 24.8995 25.3683 25.1339 25.1339C25.3683 24.8995 25.5 24.5815 25.5 24.25V6.75C25.5 6.41848 25.3683 6.10054 25.1339 5.86612C24.8995 5.6317 24.5815 5.5 24.25 5.5H19.25C18.5596 5.5 18 4.94036 18 4.25Z" fill="black"/>
<path d="M13.8839 8.36612C13.3957 7.87796 12.6043 7.87796 12.1161 8.36612C11.628 8.85427 11.628 9.64573 12.1161 10.1339L16.3709 14.25H4.25C3.55964 14.25 3 14.8096 3 15.5C3 16.1904 3.55964 16.75 4.25 16.75H16.5L12.1161 20.8661C11.628 21.3543 11.628 22.1457 12.1161 22.6339C12.6043 23.122 13.3957 23.122 13.8839 22.6339L20.1339 16.3839C20.622 15.8957 20.622 15.1043 20.1339 14.6161L13.8839 8.36612Z" fill="black"/>
</svg>
