<svg width="30" height="30" viewBox="0 0 30 30" fill="none" xmlns="http://www.w3.org/2000/svg">
<path fill-rule="evenodd" clip-rule="evenodd" d="M5.5 14.25C5.5 9.41751 9.41751 5.5 14.25 5.5C19.0825 5.5 23 9.41751 23 14.25C23 16.6074 22.0677 18.7471 20.5517 20.3205C20.509 20.3534 20.4678 20.3894 20.4286 20.4286C20.3894 20.4678 20.3534 20.509 20.3205 20.5517C18.7471 22.0677 16.6074 23 14.25 23C9.41751 23 5.5 19.0825 5.5 14.25ZM21.2721 23.0399C19.3475 24.5794 16.9063 25.5 14.25 25.5C8.0368 25.5 3 20.4632 3 14.25C3 8.0368 8.0368 3 14.25 3C20.4632 3 25.5 8.0368 25.5 14.25C25.5 16.9063 24.5794 19.3475 23.0399 21.2721L27.6339 25.8661C28.122 26.3543 28.122 27.1457 27.6339 27.6339C27.1457 28.122 26.3543 28.122 25.8661 27.6339L21.2721 23.0399Z" fill="black"/>
</svg>
