<svg width="30" height="30" viewBox="0 0 30 30" fill="none" xmlns="http://www.w3.org/2000/svg">
<g clip-path="url(#clip0_7_61)">
<path fill-rule="evenodd" clip-rule="evenodd" d="M21.25 26.75C21.25 25.3693 20.1307 24.25 18.75 24.25C17.3693 24.25 16.25 25.3693 16.25 26.75C16.25 28.1307 17.3693 29.25 18.75 29.25C20.1307 29.25 21.25 28.1307 21.25 26.75Z" fill="black"/>
<path fill-rule="evenodd" clip-rule="evenodd" d="M7.5 26.75C7.5 25.3693 6.38071 24.25 5 24.25C3.61929 24.25 2.5 25.3693 2.5 26.75C2.5 28.1307 3.61929 29.25 5 29.25C6.38071 29.25 7.5 28.1307 7.5 26.75Z" fill="black"/>
<path fill-rule="evenodd" clip-rule="evenodd" d="M30 1.75C30 1.05964 29.4404 0.5 28.75 0.5H23.75C23.1542 0.5 22.6412 0.920482 22.5243 1.50468L21.4745 6.75H1.25C0.877469 6.75 0.524349 6.91616 0.28688 7.20319C0.0494123 7.49023 -0.0476575 7.86822 0.0221276 8.23416L2.02392 18.731C2.19537 19.5943 2.66503 20.3697 3.3506 20.9216C4.03275 21.4707 4.88547 21.7637 5.76081 21.75H17.8892C18.7645 21.7637 19.6172 21.4707 20.2994 20.9216C20.9847 20.3699 21.4542 19.5949 21.6258 18.7321C21.6259 18.7317 21.6258 18.7324 21.6258 18.7321L23.714 8.299C23.7225 8.26449 23.7295 8.22942 23.7351 8.19385L24.7746 3H28.75C29.4404 3 30 2.44036 30 1.75ZM20.9741 9.25L19.1739 18.244C19.1168 18.5317 18.9603 18.7902 18.7317 18.9742C18.5032 19.1581 18.2173 19.2559 17.9239 19.2502L17.9 19.25H5.75L5.72605 19.2502C5.43273 19.2559 5.14679 19.1581 4.91827 18.9742C4.69081 18.7911 4.53466 18.5341 4.47685 18.248L2.76091 9.25H20.9741Z" fill="black"/>
</g>
<defs>
<clipPath id="clip0_7_61">
<rect width="30" height="30" fill="white"/>
</clipPath>
</defs>
</svg>
