<svg width="30" height="30" viewBox="0 0 30 30" fill="none" xmlns="http://www.w3.org/2000/svg">
<path d="M11.4184 13C11.4184 12.4477 10.9615 12 10.398 12C9.8344 12 9.37755 12.4477 9.37755 13C9.37755 14.5913 10.0226 16.1174 11.1708 17.2426C12.319 18.3679 13.8762 19 15.5 19C17.1238 19 18.681 18.3679 19.8292 17.2426C20.9774 16.1174 21.6224 14.5913 21.6224 13C21.6224 12.4477 21.1656 12 20.602 12C20.0385 12 19.5816 12.4477 19.5816 13C19.5816 14.0609 19.1516 15.0783 18.3862 15.8284C17.6207 16.5786 16.5825 17 15.5 17C14.4175 17 13.3793 16.5786 12.6138 15.8284C11.8484 15.0783 11.4184 14.0609 11.4184 13Z" fill="black"/>
<path fill-rule="evenodd" clip-rule="evenodd" d="M7.03061 2.4C7.22332 2.14819 7.52576 2 7.84694 2H23.1531C23.4742 2 23.7767 2.14819 23.9694 2.4L27.7897 7.39188C27.9216 7.56038 28 7.77122 28 8V25.5C28 26.4283 27.6237 27.3185 26.954 27.9749C26.2842 28.6313 25.3758 29 24.4286 29H6.57143C5.62423 29 4.71582 28.6313 4.04605 27.9749C3.37627 27.3185 3 26.4283 3 25.5V8C3 7.77123 3.07838 7.56041 3.21027 7.39192L7.03061 2.4ZM22.6429 4L24.9388 7H6.06122L8.35714 4H22.6429ZM5.04082 25.5V9H25.9592V25.5C25.9592 25.8978 25.7979 26.2794 25.5109 26.5607C25.2238 26.842 24.8345 27 24.4286 27H6.57143C6.16549 27 5.77617 26.842 5.48912 26.5607C5.20208 26.2794 5.04082 25.8978 5.04082 25.5Z" fill="black"/>
</svg>
