<svg width="30" height="30" viewBox="0 0 30 30" fill="none" xmlns="http://www.w3.org/2000/svg">
<path fill-rule="evenodd" clip-rule="evenodd" d="M22.5 11.5C23.3284 11.5 24 12.1716 24 13V25.5C24 26.3284 23.3284 27 22.5 27C21.6716 27 21 26.3284 21 25.5V13C21 12.1716 21.6716 11.5 22.5 11.5Z" fill="black"/>
<path fill-rule="evenodd" clip-rule="evenodd" d="M15 4C15.8284 4 16.5 4.67157 16.5 5.5V25.5C16.5 26.3284 15.8284 27 15 27C14.1716 27 13.5 26.3284 13.5 25.5V5.5C13.5 4.67157 14.1716 4 15 4Z" fill="black"/>
<path fill-rule="evenodd" clip-rule="evenodd" d="M7.5 16.5C8.32843 16.5 9 17.1716 9 18V25.5C9 26.3284 8.32843 27 7.5 27C6.67157 27 6 26.3284 6 25.5V18C6 17.1716 6.67157 16.5 7.5 16.5Z" fill="black"/>
</svg>
