<svg width="30" height="30" viewBox="0 0 30 30" fill="none" xmlns="http://www.w3.org/2000/svg">
<path fill-rule="evenodd" clip-rule="evenodd" d="M5.83058 19.3306C7.00268 18.1585 8.5924 17.5 10.25 17.5H20.25C21.9076 17.5 23.4973 18.1585 24.6694 19.3306C25.8415 20.5027 26.5 22.0924 26.5 23.75V26.25C26.5 26.9404 25.9404 27.5 25.25 27.5C24.5596 27.5 24 26.9404 24 26.25V23.75C24 22.7554 23.6049 21.8016 22.9016 21.0984C22.1984 20.3951 21.2446 20 20.25 20H10.25C9.25544 20 8.30161 20.3951 7.59835 21.0984C6.89509 21.8016 6.5 22.7554 6.5 23.75V26.25C6.5 26.9404 5.94036 27.5 5.25 27.5C4.55964 27.5 4 26.9404 4 26.25V23.75C4 22.0924 4.65848 20.5027 5.83058 19.3306Z" fill="black"/>
<path fill-rule="evenodd" clip-rule="evenodd" d="M15.25 5C13.1789 5 11.5 6.67893 11.5 8.75C11.5 10.8211 13.1789 12.5 15.25 12.5C17.3211 12.5 19 10.8211 19 8.75C19 6.67893 17.3211 5 15.25 5ZM9 8.75C9 5.29822 11.7982 2.5 15.25 2.5C18.7018 2.5 21.5 5.29822 21.5 8.75C21.5 12.2018 18.7018 15 15.25 15C11.7982 15 9 12.2018 9 8.75Z" fill="black"/>
</svg>
