<svg width="60" height="60" viewBox="0 0 60 60" fill="none" xmlns="http://www.w3.org/2000/svg">
<path d="M45.2808 29.045C44.8567 31.8886 43.6439 34.5497 41.7862 36.7131L39.7673 34.675M45.2808 29.045C45.705 26.2015 44.6868 22.3171 43.779 20.2328M45.2808 29.045L42.1743 27.9551M43.779 20.2328L41.372 21.0351M43.779 20.2328C43 18.5 43 18 41.5 16.5M30.5403 11.8081C27.7263 11.7758 24.9061 12.6914 22.5168 14.2152M30.5403 11.8081L30.5403 15.0175M30.5403 11.8081C32.6802 11.8327 34 12 36 13M22.5168 14.2152C20.1275 15.7389 18.6498 17.7641 17.4399 20.3626M22.5168 14.2152L24.4712 16.5691M17.4399 20.3626C16.2299 22.961 15.7737 25.8581 16.1253 28.7106M17.4399 20.3626L20.1098 21.4363M16.1253 28.7106C16.4769 31.563 17.6216 34.2512 19.4237 36.4566L21.3133 34.2739M16.1253 28.7106L18.8626 27.9551" stroke="black" stroke-width="2" stroke-linecap="round" stroke-linejoin="round"/>
<path d="M28.9419 22.1997L38.4415 14.7807L33.1279 25.347C32.6344 26.3283 31.9037 27.211 31.074 27.7507C30.2625 28.2787 29.3984 28.4595 28.5134 28.1697C27.7613 27.9234 27.3087 27.4988 27.0078 26.7912C26.3663 25.2829 27.2761 23.5007 28.9419 22.1997Z" stroke="#E0851A" stroke-width="2"/>
<path d="M50.9736 51.3455C50.6188 51.3455 50.2917 51.2543 49.9922 51.072C49.696 50.8898 49.4567 50.6472 49.2744 50.3445C49.0954 50.0385 49.0059 49.7032 49.0059 49.3386L49.0156 46.1697C49.0156 45.7986 49.1051 45.465 49.2842 45.1687C49.46 44.8692 49.6976 44.63 49.9971 44.451C50.2965 44.2687 50.6221 44.1775 50.9736 44.1775C51.3382 44.1775 51.6654 44.267 51.9551 44.4461C52.248 44.6251 52.4824 44.866 52.6582 45.1687C52.8372 45.4682 52.9268 45.8019 52.9268 46.1697L52.9365 49.3386C52.9365 49.7032 52.8486 50.0369 52.6729 50.3396C52.4938 50.6456 52.2562 50.8898 51.96 51.072C51.6637 51.2543 51.335 51.3455 50.9736 51.3455ZM50.9736 50.1394C51.1755 50.1394 51.3512 50.0581 51.501 49.8953C51.6507 49.7293 51.7256 49.5437 51.7256 49.3386L51.7158 46.1697C51.7158 45.9484 51.6458 45.7612 51.5059 45.6082C51.3659 45.4552 51.1885 45.3787 50.9736 45.3787C50.7686 45.3787 50.5928 45.4536 50.4463 45.6033C50.2998 45.753 50.2266 45.9418 50.2266 46.1697V49.3386C50.2266 49.5567 50.2998 49.7456 50.4463 49.9051C50.5928 50.0613 50.7686 50.1394 50.9736 50.1394Z" fill="#1A75E0"/>
<path d="M47.458 51.2478H46.3301C46.3008 51.2478 46.2861 51.2316 46.2861 51.199V45.4959H44.9873C44.9548 45.4959 44.9385 45.4796 44.9385 45.447L44.9482 44.3289C44.9482 44.3028 44.9613 44.2898 44.9873 44.2898H48.7861C48.8219 44.2898 48.8398 44.3028 48.8398 44.3289V45.447C48.8398 45.4796 48.8268 45.4959 48.8008 45.4959H47.4873L47.4971 51.199C47.4971 51.2316 47.484 51.2478 47.458 51.2478Z" fill="#1A75E0"/>
<path d="M42.8096 51.3455C42.4548 51.3455 42.1276 51.2543 41.8281 51.072C41.5319 50.8898 41.2926 50.6472 41.1104 50.3445C40.9313 50.0385 40.8418 49.7032 40.8418 49.3386L40.8516 46.1697C40.8516 45.7986 40.9411 45.465 41.1201 45.1687C41.2959 44.8692 41.5335 44.63 41.833 44.451C42.1325 44.2687 42.458 44.1775 42.8096 44.1775C43.1742 44.1775 43.5013 44.267 43.791 44.4461C44.084 44.6251 44.3184 44.866 44.4941 45.1687C44.6732 45.4682 44.7627 45.8019 44.7627 46.1697L44.7725 49.3386C44.7725 49.7032 44.6846 50.0369 44.5088 50.3396C44.3298 50.6456 44.0921 50.8898 43.7959 51.072C43.4997 51.2543 43.1709 51.3455 42.8096 51.3455ZM42.8096 50.1394C43.0114 50.1394 43.1872 50.0581 43.3369 49.8953C43.4867 49.7293 43.5615 49.5437 43.5615 49.3386L43.5518 46.1697C43.5518 45.9484 43.4818 45.7612 43.3418 45.6082C43.2018 45.4552 43.0244 45.3787 42.8096 45.3787C42.6045 45.3787 42.4287 45.4536 42.2822 45.6033C42.1357 45.753 42.0625 45.9418 42.0625 46.1697V49.3386C42.0625 49.5567 42.1357 49.7456 42.2822 49.9051C42.4287 50.0613 42.6045 50.1394 42.8096 50.1394Z" fill="#1A75E0"/>
<path d="M36.7598 51.2478H35.627C35.6009 51.2478 35.5879 51.2316 35.5879 51.199L35.6074 44.3289C35.6074 44.3028 35.6204 44.2898 35.6465 44.2898H36.8672C36.8932 44.2898 36.916 44.3028 36.9355 44.3289L37.8486 45.6472L38.7568 44.3289C38.7764 44.3028 38.8008 44.2898 38.8301 44.2898H40.0557C40.085 44.2898 40.0996 44.3028 40.0996 44.3289L40.1191 51.199C40.1191 51.2316 40.1061 51.2478 40.0801 51.2478H38.9473C38.9212 51.2478 38.9082 51.2316 38.9082 51.199L38.8984 46.0965L37.8486 47.6199L36.8086 46.0965L36.7988 51.199C36.7988 51.2316 36.7858 51.2478 36.7598 51.2478Z" fill="#1A75E0"/>
<path d="M29.3379 51.2478H28.2051C28.179 51.2478 28.166 51.2316 28.166 51.199L28.1855 44.3289C28.1855 44.3028 28.1986 44.2898 28.2246 44.2898H30.2461C30.6074 44.2898 30.9395 44.3777 31.2422 44.5535C31.5449 44.7293 31.7858 44.9653 31.9648 45.2615C32.1471 45.5577 32.2383 45.893 32.2383 46.2674C32.2383 46.5115 32.2008 46.7329 32.126 46.9314C32.0511 47.13 31.9632 47.2976 31.8623 47.4344C31.7646 47.5711 31.6751 47.672 31.5938 47.7371C31.9551 48.1375 32.1357 48.6079 32.1357 49.1482L32.1455 51.199C32.1455 51.2316 32.1292 51.2478 32.0967 51.2478H30.9639C30.9378 51.2478 30.9248 51.2381 30.9248 51.2185V49.1482C30.9248 48.9073 30.8402 48.699 30.6709 48.5232C30.5016 48.3474 30.2933 48.2595 30.0459 48.2595H29.3867L29.377 51.199C29.377 51.2316 29.3639 51.2478 29.3379 51.2478ZM30.2461 45.4861H29.3867V47.0584H30.2461C30.4512 47.0584 30.6335 46.9819 30.793 46.8289C30.9557 46.6759 31.0371 46.4887 31.0371 46.2674C31.0371 46.0558 30.959 45.8735 30.8027 45.7205C30.6465 45.5642 30.4609 45.4861 30.2461 45.4861Z" fill="#1A75E0"/>
<path d="M27.2383 51.2478H24.0059C23.9798 51.2478 23.9668 51.2316 23.9668 51.199L23.9766 44.3289C23.9766 44.3028 23.9896 44.2898 24.0156 44.2898H27.2285C27.2546 44.2898 27.2676 44.3061 27.2676 44.3386V45.4568C27.2676 45.4829 27.2546 45.4959 27.2285 45.4959H25.1777V47.0584H27.2285C27.2546 47.0584 27.2676 47.0714 27.2676 47.0974L27.2773 48.2303C27.2773 48.2563 27.2643 48.2693 27.2383 48.2693H25.1777V50.0174H27.2383C27.2643 50.0174 27.2773 50.0336 27.2773 50.0662V51.2088C27.2773 51.2348 27.2643 51.2478 27.2383 51.2478Z" fill="#1A75E0"/>
<path d="M21.9746 51.2478H20.7637C20.7344 51.2478 20.7181 51.2316 20.7148 51.199L19.333 44.3289C19.3265 44.3028 19.3395 44.2898 19.3721 44.2898H20.5049C20.5309 44.2898 20.5472 44.3028 20.5537 44.3289L21.374 48.909L22.1748 44.3289C22.1813 44.3028 22.1976 44.2898 22.2236 44.2898H23.3418C23.3776 44.2898 23.3906 44.3028 23.3809 44.3289L22.0234 51.199C22.0202 51.2316 22.0039 51.2478 21.9746 51.2478Z" fill="#1A75E0"/>
<path d="M18.7227 51.2478H17.5898C17.5573 51.2478 17.541 51.2316 17.541 51.199L17.5508 44.3289C17.5508 44.3028 17.5638 44.2898 17.5898 44.2898H18.7129C18.7389 44.2898 18.752 44.3028 18.752 44.3289L18.7617 51.199C18.7617 51.2316 18.7487 51.2478 18.7227 51.2478Z" fill="#1A75E0"/>
<path d="M13.8887 51.2478H12.7559C12.7298 51.2478 12.7168 51.2316 12.7168 51.199L12.7363 44.3289C12.7363 44.3028 12.7493 44.2898 12.7754 44.2898H14.7969C15.1582 44.2898 15.4902 44.3777 15.793 44.5535C16.0957 44.7293 16.3366 44.9653 16.5156 45.2615C16.6979 45.5577 16.7891 45.893 16.7891 46.2674C16.7891 46.5115 16.7516 46.7329 16.6768 46.9314C16.6019 47.13 16.514 47.2976 16.4131 47.4344C16.3154 47.5711 16.2259 47.672 16.1445 47.7371C16.5059 48.1375 16.6865 48.6079 16.6865 49.1482L16.6963 51.199C16.6963 51.2316 16.68 51.2478 16.6475 51.2478H15.5146C15.4886 51.2478 15.4756 51.2381 15.4756 51.2185V49.1482C15.4756 48.9073 15.391 48.699 15.2217 48.5232C15.0524 48.3474 14.8441 48.2595 14.5967 48.2595H13.9375L13.9277 51.199C13.9277 51.2316 13.9147 51.2478 13.8887 51.2478ZM14.7969 45.4861H13.9375V47.0584H14.7969C15.002 47.0584 15.1842 46.9819 15.3438 46.8289C15.5065 46.6759 15.5879 46.4887 15.5879 46.2674C15.5879 46.0558 15.5098 45.8735 15.3535 45.7205C15.1973 45.5642 15.0117 45.4861 14.7969 45.4861Z" fill="#1A75E0"/>
<path d="M9.84082 51.2381L8.04883 51.2478C8.01628 51.2478 8 51.2316 8 51.199L8.01953 44.3289C8.01953 44.3028 8.03255 44.2898 8.05859 44.2898L9.92871 44.2801C10.2998 44.2703 10.6351 44.3549 10.9346 44.534C11.2373 44.713 11.4782 44.9555 11.6572 45.2615C11.8395 45.5642 11.9307 45.8995 11.9307 46.2674V49.1385C11.9307 49.5226 11.8379 49.8741 11.6523 50.1931C11.4635 50.5089 11.2129 50.7612 10.9004 50.95C10.5879 51.1355 10.2347 51.2316 9.84082 51.2381ZM9.92871 45.4763L9.23047 45.4861L9.2207 50.0174H9.84082C10.0882 50.0174 10.2965 49.9311 10.4658 49.7586C10.6351 49.586 10.7197 49.3793 10.7197 49.1385V46.2576C10.7197 46.046 10.6416 45.8621 10.4854 45.7058C10.3291 45.5463 10.1436 45.4698 9.92871 45.4763Z" fill="#1A75E0"/>
</svg>
